<?xml version="1.0" encoding="UTF-8" standalone="no"?><!DOCTYPE svg PUBLIC "-//W3C//DTD SVG 1.1//EN" "http://www.w3.org/Graphics/SVG/1.1/DTD/svg11.dtd"><!-- Generated by graphviz version 2.40.1 (20161225.0304)
 --><!-- Title: finite_state_machine Pages: 1 --><svg xmlns="http://www.w3.org/2000/svg" xmlns:xlink="http://www.w3.org/1999/xlink" width="576pt" height="346pt" viewBox="0.00 0.00 576.00 346.12">
<g id="graph0" class="graph" transform="scale(.5789 .5789) rotate(0) translate(4 593.9235)">
<title>finite_state_machine</title>
<polygon fill="#ffffff" stroke="transparent" points="-4,4 -4,-593.9235 991.0397,-593.9235 991.0397,4 -4,4"/>
<!-- ID -->
<g id="node1" class="node">
<title>ID</title>
<ellipse fill="none" stroke="#000000" cx="296.387" cy="-533.8902" rx="21.4117" ry="21.4117"/>
<ellipse fill="none" stroke="#000000" cx="296.387" cy="-533.8902" rx="25.4473" ry="25.4473"/>
<text text-anchor="middle" x="296.387" y="-529.6902" font-family="Times,serif" font-size="14.00" fill="#000000">ID</text>
</g>
<!-- INT -->
<g id="node2" class="node">
<title>INT</title>
<ellipse fill="none" stroke="#000000" cx="296.387" cy="-378.8902" rx="27.2289" ry="27.2289"/>
<ellipse fill="none" stroke="#000000" cx="296.387" cy="-378.8902" rx="31.2446" ry="31.2446"/>
<text text-anchor="middle" x="296.387" y="-374.6902" font-family="Times,serif" font-size="14.00" fill="#000000">INT</text>
</g>
<!-- FLT -->
<g id="node3" class="node">
<title>FLT</title>
<ellipse fill="none" stroke="#000000" cx="954.8361" cy="-390.8902" rx="28.3832" ry="28.3832"/>
<ellipse fill="none" stroke="#000000" cx="954.8361" cy="-390.8902" rx="32.4086" ry="32.4086"/>
<text text-anchor="middle" x="954.8361" y="-386.6902" font-family="Times,serif" font-size="14.00" fill="#000000">FLT</text>
</g>
<!-- STR -->
<g id="node4" class="node">
<title>STR</title>
<ellipse fill="none" stroke="#000000" cx="458.034" cy="-289.8902" rx="28.9606" ry="28.9606"/>
<ellipse fill="none" stroke="#000000" cx="458.034" cy="-289.8902" rx="32.9907" ry="32.9907"/>
<text text-anchor="middle" x="458.034" y="-285.6902" font-family="Times,serif" font-size="14.00" fill="#000000">STR</text>
</g>
<!-- CMT -->
<g id="node5" class="node">
<title>CMT</title>
<ellipse fill="none" stroke="#000000" cx="612.4891" cy="-61.8902" rx="31.9249" ry="31.9249"/>
<ellipse fill="none" stroke="#000000" cx="612.4891" cy="-61.8902" rx="35.9205" ry="35.9205"/>
<text text-anchor="middle" x="612.4891" y="-57.6902" font-family="Times,serif" font-size="14.00" fill="#000000">CMT</text>
</g>
<!-- / -->
<g id="node6" class="node">
<title>/</title>
<ellipse fill="none" stroke="#000000" cx="296.387" cy="-223.8902" rx="18" ry="18"/>
<ellipse fill="none" stroke="#000000" cx="296.387" cy="-223.8902" rx="22" ry="22"/>
<text text-anchor="middle" x="296.387" y="-219.6902" font-family="Times,serif" font-size="14.00" fill="#000000">/</text>
</g>
<!-- START -->
<g id="node7" class="node">
<title>START</title>
<ellipse fill="none" stroke="#000000" cx="41.6152" cy="-379.8902" rx="41.7308" ry="41.7308"/>
<text text-anchor="middle" x="41.6152" y="-375.6902" font-family="Times,serif" font-size="14.00" fill="#000000">START</text>
</g>
<!-- S1 -->
<g id="node8" class="node">
<title>S1</title>
<ellipse fill="none" stroke="#000000" cx="195.0426" cy="-533.8902" rx="21.4691" ry="21.4691"/>
<text text-anchor="middle" x="195.0426" y="-529.6902" font-family="Times,serif" font-size="14.00" fill="#000000">S1</text>
</g>
<!-- START&#45;&gt;S1 -->
<g id="edge1" class="edge">
<title>START-&gt;S1</title>
<path fill="none" stroke="#000000" d="M62.5302,-416.313C72.9591,-432.7738 86.4867,-451.857 101.2304,-466.8902 121.1608,-487.2118 147.8998,-505.6324 167.7314,-517.9924"/>
<polygon fill="#000000" stroke="#000000" points="165.9493,-521.0051 176.3079,-523.2299 169.5976,-515.031 165.9493,-521.0051"/>
<text text-anchor="middle" x="126.1056" y="-510.0902" font-family="Times,serif" font-size="14.00" fill="#000000">letter</text>
</g>
<!-- S2 -->
<g id="node9" class="node">
<title>S2</title>
<ellipse fill="none" stroke="#000000" cx="195.0426" cy="-379.8902" rx="21.4691" ry="21.4691"/>
<text text-anchor="middle" x="195.0426" y="-375.6902" font-family="Times,serif" font-size="14.00" fill="#000000">S2</text>
</g>
<!-- START&#45;&gt;S2 -->
<g id="edge4" class="edge">
<title>START-&gt;S2</title>
<path fill="none" stroke="#000000" d="M83.5399,-379.8902C108.6629,-379.8902 140.1012,-379.8902 163.1858,-379.8902"/>
<polygon fill="#000000" stroke="#000000" points="163.4667,-383.3903 173.4667,-379.8902 163.4666,-376.3903 163.4667,-383.3903"/>
<text text-anchor="middle" x="126.1056" y="-384.0902" font-family="Times,serif" font-size="14.00" fill="#000000">non-zero</text>
</g>
<!-- S3 -->
<g id="node10" class="node">
<title>S3</title>
<ellipse fill="none" stroke="#000000" cx="195.0426" cy="-473.8902" rx="21.4691" ry="21.4691"/>
<text text-anchor="middle" x="195.0426" y="-469.6902" font-family="Times,serif" font-size="14.00" fill="#000000">S3</text>
</g>
<!-- START&#45;&gt;S3 -->
<g id="edge7" class="edge">
<title>START-&gt;S3</title>
<path fill="none" stroke="#000000" d="M77.2002,-401.692C104.9523,-418.6948 142.9,-441.9442 168.153,-457.4158"/>
<polygon fill="#000000" stroke="#000000" points="166.4846,-460.4983 176.84,-462.7381 170.1415,-454.5294 166.4846,-460.4983"/>
<text text-anchor="middle" x="126.1056" y="-450.0902" font-family="Times,serif" font-size="14.00" fill="#000000">0</text>
</g>
<!-- S9 -->
<g id="node18" class="node">
<title>S9</title>
<ellipse fill="none" stroke="#000000" cx="195.0426" cy="-285.8902" rx="21.4691" ry="21.4691"/>
<text text-anchor="middle" x="195.0426" y="-281.6902" font-family="Times,serif" font-size="14.00" fill="#000000">S9</text>
</g>
<!-- START&#45;&gt;S9 -->
<g id="edge26" class="edge">
<title>START-&gt;S9</title>
<path fill="none" stroke="#000000" d="M77.2002,-358.0885C104.9523,-341.0856 142.9,-317.8363 168.153,-302.3646"/>
<polygon fill="#000000" stroke="#000000" points="170.1415,-305.251 176.84,-297.0424 166.4846,-299.2822 170.1415,-305.251"/>
<text text-anchor="middle" x="126.1056" y="-345.0902" font-family="Times,serif" font-size="14.00" fill="#000000">"</text>
</g>
<!-- S23 -->
<g id="node20" class="node">
<title>S23</title>
<ellipse fill="none" stroke="#000000" cx="195.0426" cy="-182.8902" rx="26.1236" ry="26.1236"/>
<text text-anchor="middle" x="195.0426" y="-178.6902" font-family="Times,serif" font-size="14.00" fill="#000000">S23</text>
</g>
<!-- START&#45;&gt;S23 -->
<g id="edge39" class="edge">
<title>START-&gt;S23</title>
<path fill="none" stroke="#000000" d="M64.2306,-344.6399C75.0172,-328.3448 88.355,-308.918 101.2304,-292.0902 123.414,-263.0971 150.8227,-231.64 170.2726,-209.9689"/>
<polygon fill="#000000" stroke="#000000" points="172.9553,-212.2203 177.0538,-202.4503 167.7572,-207.532 172.9553,-212.2203"/>
<text text-anchor="middle" x="126.1056" y="-296.0902" font-family="Times,serif" font-size="14.00" fill="#000000">/</text>
</g>
<!-- S1&#45;&gt;ID -->
<g id="edge3" class="edge">
<title>S1-&gt;ID</title>
<path fill="none" stroke="#000000" d="M216.5351,-533.8902C229.3459,-533.8902 245.9314,-533.8902 260.6648,-533.8902"/>
<polygon fill="#000000" stroke="#000000" points="260.9852,-537.3903 270.9852,-533.8902 260.9852,-530.3903 260.9852,-537.3903"/>
<text text-anchor="middle" x="243.1846" y="-538.0902" font-family="Times,serif" font-size="14.00" fill="#000000">ω</text>
</g>
<!-- S1&#45;&gt;S1 -->
<g id="edge2" class="edge">
<title>S1-&gt;S1</title>
<path fill="none" stroke="#000000" d="M186.359,-553.6733C185.0231,-563.9027 187.9176,-573.1235 195.0426,-573.1235 199.607,-573.1235 202.4353,-569.3393 203.5274,-563.9299"/>
<polygon fill="#000000" stroke="#000000" points="207.0317,-563.7393 203.7262,-553.6733 200.033,-563.6035 207.0317,-563.7393"/>
<text text-anchor="middle" x="195.0426" y="-577.3235" font-family="Times,serif" font-size="14.00" fill="#000000">alphanum</text>
</g>
<!-- S2&#45;&gt;INT -->
<g id="edge6" class="edge">
<title>S2-&gt;INT</title>
<path fill="none" stroke="#000000" d="M214.9192,-372.2587C222.3853,-369.7682 231.022,-367.3263 239.1043,-366.0902 244.9766,-365.1921 251.1449,-365.3669 257.1699,-366.1724"/>
<polygon fill="#000000" stroke="#000000" points="256.6211,-369.6305 267.0967,-368.0454 257.9191,-362.7519 256.6211,-369.6305"/>
<text text-anchor="middle" x="243.1846" y="-370.0902" font-family="Times,serif" font-size="14.00" fill="#000000">ω</text>
</g>
<!-- S2&#45;&gt;S2 -->
<g id="edge5" class="edge">
<title>S2-&gt;S2</title>
<path fill="none" stroke="#000000" d="M186.359,-399.6733C185.0231,-409.9027 187.9176,-419.1235 195.0426,-419.1235 199.607,-419.1235 202.4353,-415.3393 203.5274,-409.9299"/>
<polygon fill="#000000" stroke="#000000" points="207.0317,-409.7393 203.7262,-399.6733 200.033,-409.6035 207.0317,-409.7393"/>
<text text-anchor="middle" x="195.0426" y="-423.3235" font-family="Times,serif" font-size="14.00" fill="#000000">digit</text>
</g>
<!-- S11 -->
<g id="node11" class="node">
<title>S11</title>
<ellipse fill="none" stroke="#000000" cx="296.387" cy="-460.8902" rx="26.1236" ry="26.1236"/>
<text text-anchor="middle" x="296.387" y="-456.6902" font-family="Times,serif" font-size="14.00" fill="#000000">S11</text>
</g>
<!-- S2&#45;&gt;S11 -->
<g id="edge9" class="edge">
<title>S2-&gt;S11</title>
<path fill="none" stroke="#000000" d="M214.9062,-387.7347C225.1109,-392.274 237.4321,-398.5765 247.2649,-406.0902 257.0013,-413.5303 266.3369,-423.0869 274.2054,-432.1301"/>
<polygon fill="#000000" stroke="#000000" points="271.6032,-434.4739 280.7157,-439.8788 276.9627,-429.9709 271.6032,-434.4739"/>
<text text-anchor="middle" x="243.1846" y="-410.0902" font-family="Times,serif" font-size="14.00" fill="#000000">.</text>
</g>
<!-- S3&#45;&gt;INT -->
<g id="edge8" class="edge">
<title>S3-&gt;INT</title>
<path fill="none" stroke="#000000" d="M210.8777,-459.0465C225.5885,-445.2566 247.8918,-424.3495 266.0318,-407.3451"/>
<polygon fill="#000000" stroke="#000000" points="268.6149,-409.7211 273.517,-400.3285 263.8276,-404.6141 268.6149,-409.7211"/>
<text text-anchor="middle" x="243.1846" y="-436.0902" font-family="Times,serif" font-size="14.00" fill="#000000">ω</text>
</g>
<!-- S3&#45;&gt;S11 -->
<g id="edge10" class="edge">
<title>S3-&gt;S11</title>
<path fill="none" stroke="#000000" d="M216.5351,-471.1333C229.1589,-469.5139 245.4479,-467.4245 260.0183,-465.5554"/>
<polygon fill="#000000" stroke="#000000" points="260.7738,-468.9873 270.2471,-464.2433 259.8831,-462.0442 260.7738,-468.9873"/>
<text text-anchor="middle" x="243.1846" y="-472.0902" font-family="Times,serif" font-size="14.00" fill="#000000">.</text>
</g>
<!-- S4 -->
<g id="node12" class="node">
<title>S4</title>
<ellipse fill="none" stroke="#000000" cx="458.034" cy="-460.8902" rx="21.4691" ry="21.4691"/>
<text text-anchor="middle" x="458.034" y="-456.6902" font-family="Times,serif" font-size="14.00" fill="#000000">S4</text>
</g>
<!-- S11&#45;&gt;S4 -->
<g id="edge21" class="edge">
<title>S11-&gt;S4</title>
<path fill="none" stroke="#000000" d="M322.7182,-460.8902C351.0476,-460.8902 396.0958,-460.8902 426.3456,-460.8902"/>
<polygon fill="#000000" stroke="#000000" points="426.3765,-464.3903 436.3764,-460.8902 426.3764,-457.3903 426.3765,-464.3903"/>
<text text-anchor="middle" x="376.3993" y="-465.0902" font-family="Times,serif" font-size="14.00" fill="#000000">digit</text>
</g>
<!-- S4&#45;&gt;FLT -->
<g id="edge11" class="edge">
<title>S4-&gt;FLT</title>
<path fill="none" stroke="#000000" d="M478.9391,-457.1174C508.5546,-452.109 564.4699,-443.8902 612.4891,-443.8902 612.4891,-443.8902 612.4891,-443.8902 857.2385,-443.8902 880.9333,-443.8902 904.3695,-431.6769 922.3352,-418.9761"/>
<polygon fill="#000000" stroke="#000000" points="924.7619,-421.5329 930.6924,-412.7533 920.5813,-415.9183 924.7619,-421.5329"/>
<text text-anchor="middle" x="725.3797" y="-448.0902" font-family="Times,serif" font-size="14.00" fill="#000000">ω</text>
</g>
<!-- S4&#45;&gt;S4 -->
<g id="edge22" class="edge">
<title>S4-&gt;S4</title>
<path fill="none" stroke="#000000" d="M445.2565,-478.2357C441.9233,-489.3893 446.1824,-500.1235 458.034,-500.1235 466.1819,-500.1235 470.7413,-495.0499 471.712,-488.2545"/>
<polygon fill="#000000" stroke="#000000" points="475.1928,-487.8822 470.8115,-478.2357 468.2209,-488.5089 475.1928,-487.8822"/>
<text text-anchor="middle" x="458.034" y="-504.3235" font-family="Times,serif" font-size="14.00" fill="#000000">non-zero</text>
</g>
<!-- S5 -->
<g id="node13" class="node">
<title>S5</title>
<ellipse fill="none" stroke="#000000" cx="612.4891" cy="-368.8902" rx="21.4691" ry="21.4691"/>
<text text-anchor="middle" x="612.4891" y="-364.6902" font-family="Times,serif" font-size="14.00" fill="#000000">S5</text>
</g>
<!-- S4&#45;&gt;S5 -->
<g id="edge12" class="edge">
<title>S4-&gt;S5</title>
<path fill="none" stroke="#000000" d="M472.376,-444.7176C481.9386,-434.6476 495.2057,-421.9672 508.7784,-413.0902 531.8276,-398.0154 560.8726,-386.1585 582.358,-378.5366"/>
<polygon fill="#000000" stroke="#000000" points="583.6265,-381.8016 591.9433,-375.238 581.3486,-375.1826 583.6265,-381.8016"/>
<text text-anchor="middle" x="533.6536" y="-417.0902" font-family="Times,serif" font-size="14.00" fill="#000000">e</text>
</g>
<!-- S12 -->
<g id="node17" class="node">
<title>S12</title>
<ellipse fill="none" stroke="#000000" cx="612.4891" cy="-506.8902" rx="26.1236" ry="26.1236"/>
<text text-anchor="middle" x="612.4891" y="-502.6902" font-family="Times,serif" font-size="14.00" fill="#000000">S12</text>
</g>
<!-- S4&#45;&gt;S12 -->
<g id="edge23" class="edge">
<title>S4-&gt;S12</title>
<path fill="none" stroke="#000000" d="M474.3005,-474.7174C483.7509,-481.9653 496.2395,-490.2739 508.7784,-494.8902 530.2155,-502.7825 555.6814,-505.8123 576.0137,-506.8545"/>
<polygon fill="#000000" stroke="#000000" points="576.0055,-510.3565 586.1296,-507.2335 576.2677,-503.3614 576.0055,-510.3565"/>
<text text-anchor="middle" x="533.6536" y="-509.0902" font-family="Times,serif" font-size="14.00" fill="#000000">0</text>
</g>
<!-- S6 -->
<g id="node14" class="node">
<title>S6</title>
<ellipse fill="none" stroke="#000000" cx="725.3797" cy="-333.8902" rx="21.4691" ry="21.4691"/>
<text text-anchor="middle" x="725.3797" y="-329.6902" font-family="Times,serif" font-size="14.00" fill="#000000">S6</text>
</g>
<!-- S5&#45;&gt;S6 -->
<g id="edge13" class="edge">
<title>S5-&gt;S6</title>
<path fill="none" stroke="#000000" d="M632.9327,-362.552C650.3553,-357.1504 675.6318,-349.3138 695.3528,-343.1996"/>
<polygon fill="#000000" stroke="#000000" points="696.5731,-346.4857 705.0881,-340.1813 694.5002,-339.7996 696.5731,-346.4857"/>
<text text-anchor="middle" x="674.4769" y="-355.0902" font-family="Times,serif" font-size="14.00" fill="#000000">+,-</text>
</g>
<!-- S8 -->
<g id="node15" class="node">
<title>S8</title>
<ellipse fill="none" stroke="#000000" cx="857.2385" cy="-296.8902" rx="21.4691" ry="21.4691"/>
<text text-anchor="middle" x="857.2385" y="-292.6902" font-family="Times,serif" font-size="14.00" fill="#000000">S8</text>
</g>
<!-- S5&#45;&gt;S8 -->
<g id="edge14" class="edge">
<title>S5-&gt;S8</title>
<path fill="none" stroke="#000000" d="M624.7067,-351.4366C639.8446,-331.5026 667.692,-299.9836 700.5045,-287.0902 742.0628,-270.7602 794.5951,-279.3353 827.0513,-287.633"/>
<polygon fill="#000000" stroke="#000000" points="826.277,-291.0493 836.8443,-290.2854 828.1071,-284.2928 826.277,-291.0493"/>
<text text-anchor="middle" x="725.3797" y="-291.0902" font-family="Times,serif" font-size="14.00" fill="#000000">non-zero</text>
</g>
<!-- S7 -->
<g id="node16" class="node">
<title>S7</title>
<ellipse fill="none" stroke="#000000" cx="857.2385" cy="-390.8902" rx="21.4691" ry="21.4691"/>
<text text-anchor="middle" x="857.2385" y="-386.6902" font-family="Times,serif" font-size="14.00" fill="#000000">S7</text>
</g>
<!-- S5&#45;&gt;S7 -->
<g id="edge15" class="edge">
<title>S5-&gt;S7</title>
<path fill="none" stroke="#000000" d="M633.7808,-370.8041C676.9948,-374.6885 775.1754,-383.5137 825.7818,-388.0626"/>
<polygon fill="#000000" stroke="#000000" points="825.5485,-391.5557 835.8217,-388.9651 826.1752,-384.5838 825.5485,-391.5557"/>
<text text-anchor="middle" x="725.3797" y="-385.0902" font-family="Times,serif" font-size="14.00" fill="#000000">0</text>
</g>
<!-- S6&#45;&gt;S8 -->
<g id="edge18" class="edge">
<title>S6-&gt;S8</title>
<path fill="none" stroke="#000000" d="M745.2797,-325.9959C752.4577,-323.298 760.6611,-320.3851 768.2549,-318.0902 787.2644,-312.3455 808.9342,-307.1547 826.1298,-303.3473"/>
<polygon fill="#000000" stroke="#000000" points="827.1644,-306.7043 836.1946,-301.1629 825.6797,-299.8636 827.1644,-306.7043"/>
<text text-anchor="middle" x="793.1301" y="-322.0902" font-family="Times,serif" font-size="14.00" fill="#000000">non-zero</text>
</g>
<!-- S6&#45;&gt;S7 -->
<g id="edge16" class="edge">
<title>S6-&gt;S7</title>
<path fill="none" stroke="#000000" d="M746.4751,-337.4222C765.832,-341.2178 794.9179,-348.345 818.0053,-360.0902 823.215,-362.7406 828.405,-366.1346 833.2236,-369.6958"/>
<polygon fill="#000000" stroke="#000000" points="831.4009,-372.716 841.4197,-376.1622 835.7367,-367.2204 831.4009,-372.716"/>
<text text-anchor="middle" x="793.1301" y="-364.0902" font-family="Times,serif" font-size="14.00" fill="#000000">0</text>
</g>
<!-- S8&#45;&gt;FLT -->
<g id="edge20" class="edge">
<title>S8-&gt;FLT</title>
<path fill="none" stroke="#000000" d="M872.9193,-311.9929C886.6571,-325.2244 907.0254,-344.8419 924.0143,-361.2045"/>
<polygon fill="#000000" stroke="#000000" points="921.9157,-364.0427 931.5462,-368.4589 926.7716,-359.0009 921.9157,-364.0427"/>
<text text-anchor="middle" x="900.5521" y="-345.0902" font-family="Times,serif" font-size="14.00" fill="#000000">ω</text>
</g>
<!-- S8&#45;&gt;S8 -->
<g id="edge19" class="edge">
<title>S8-&gt;S8</title>
<path fill="none" stroke="#000000" d="M849.5962,-317.0765C848.5387,-327.1437 851.0862,-336.1235 857.2385,-336.1235 861.1799,-336.1235 863.6418,-332.4382 864.6242,-327.1426"/>
<polygon fill="#000000" stroke="#000000" points="868.1248,-327.1625 864.8809,-317.0765 861.127,-326.984 868.1248,-327.1625"/>
<text text-anchor="middle" x="857.2385" y="-340.3235" font-family="Times,serif" font-size="14.00" fill="#000000">digit</text>
</g>
<!-- S7&#45;&gt;FLT -->
<g id="edge17" class="edge">
<title>S7-&gt;FLT</title>
<path fill="none" stroke="#000000" d="M878.8986,-390.8902C888.7017,-390.8902 900.6473,-390.8902 912.135,-390.8902"/>
<polygon fill="#000000" stroke="#000000" points="912.4816,-394.3903 922.4815,-390.8902 912.4815,-387.3903 912.4816,-394.3903"/>
<text text-anchor="middle" x="900.5521" y="-395.0902" font-family="Times,serif" font-size="14.00" fill="#000000">ω</text>
</g>
<!-- S12&#45;&gt;S4 -->
<g id="edge25" class="edge">
<title>S12-&gt;S4</title>
<path fill="none" stroke="#000000" d="M591.4706,-491.3003C581.8872,-484.954 570.1111,-478.1663 558.5288,-474.0902 536.2979,-466.2666 509.8224,-463.0162 489.6281,-461.6953"/>
<polygon fill="#000000" stroke="#000000" points="489.5807,-458.1879 479.4097,-461.1547 489.2108,-465.1782 489.5807,-458.1879"/>
<text text-anchor="middle" x="533.6536" y="-478.0902" font-family="Times,serif" font-size="14.00" fill="#000000">non-zero</text>
</g>
<!-- S12&#45;&gt;S12 -->
<g id="edge24" class="edge">
<title>S12-&gt;S12</title>
<path fill="none" stroke="#000000" d="M601.4148,-530.9112C600.3601,-541.6577 604.0516,-550.952 612.4891,-550.952 618.0262,-550.952 621.5193,-546.9493 622.9685,-541.1602"/>
<polygon fill="#000000" stroke="#000000" points="626.4779,-541.0972 623.5633,-530.9112 619.4897,-540.6916 626.4779,-541.0972"/>
<text text-anchor="middle" x="612.4891" y="-555.152" font-family="Times,serif" font-size="14.00" fill="#000000">0</text>
</g>
<!-- S9&#45;&gt;S9 -->
<g id="edge27" class="edge">
<title>S9-&gt;S9</title>
<path fill="none" stroke="#000000" d="M186.359,-305.6733C185.0231,-315.9027 187.9176,-325.1235 195.0426,-325.1235 199.607,-325.1235 202.4353,-321.3393 203.5274,-315.9299"/>
<polygon fill="#000000" stroke="#000000" points="207.0317,-315.7393 203.7262,-305.6733 200.033,-315.6035 207.0317,-315.7393"/>
<text text-anchor="middle" x="195.0426" y="-329.3235" font-family="Times,serif" font-size="14.00" fill="#000000">character</text>
</g>
<!-- S10 -->
<g id="node19" class="node">
<title>S10</title>
<ellipse fill="none" stroke="#000000" cx="296.387" cy="-289.8902" rx="26.1236" ry="26.1236"/>
<text text-anchor="middle" x="296.387" y="-285.6902" font-family="Times,serif" font-size="14.00" fill="#000000">S10</text>
</g>
<!-- S9&#45;&gt;S10 -->
<g id="edge28" class="edge">
<title>S9-&gt;S10</title>
<path fill="none" stroke="#000000" d="M216.5351,-286.7385C229.1589,-287.2368 245.4479,-287.8797 260.0183,-288.4548"/>
<polygon fill="#000000" stroke="#000000" points="260.1169,-291.9613 270.2471,-288.8585 260.393,-284.9667 260.1169,-291.9613"/>
<text text-anchor="middle" x="243.1846" y="-292.0902" font-family="Times,serif" font-size="14.00" fill="#000000">"</text>
</g>
<!-- S10&#45;&gt;STR -->
<g id="edge29" class="edge">
<title>S10-&gt;STR</title>
<path fill="none" stroke="#000000" d="M322.7182,-289.8902C347.5774,-289.8902 385.3105,-289.8902 414.6212,-289.8902"/>
<polygon fill="#000000" stroke="#000000" points="414.9994,-293.3903 424.9994,-289.8902 414.9994,-286.3903 414.9994,-293.3903"/>
<text text-anchor="middle" x="376.3993" y="-294.0902" font-family="Times,serif" font-size="14.00" fill="#000000">ω</text>
</g>
<!-- S23&#45;&gt;/ -->
<g id="edge40" class="edge">
<title>S23-&gt;/</title>
<path fill="none" stroke="#000000" d="M219.3171,-192.7107C233.4397,-198.4242 251.3578,-205.6732 266.3623,-211.7434"/>
<polygon fill="#000000" stroke="#000000" points="265.1497,-215.0283 275.7324,-215.5342 267.7749,-208.5392 265.1497,-215.0283"/>
<text text-anchor="middle" x="243.1846" y="-207.0902" font-family="Times,serif" font-size="14.00" fill="#000000">ω</text>
</g>
<!-- S116 -->
<g id="node21" class="node">
<title>S116</title>
<ellipse fill="none" stroke="#000000" cx="296.387" cy="-118.8902" rx="30.7808" ry="30.7808"/>
<text text-anchor="middle" x="296.387" y="-114.6902" font-family="Times,serif" font-size="14.00" fill="#000000">S116</text>
</g>
<!-- S23&#45;&gt;S116 -->
<g id="edge30" class="edge">
<title>S23-&gt;S116</title>
<path fill="none" stroke="#000000" d="M217.2831,-168.8451C230.2146,-160.6788 246.7986,-150.2058 261.4389,-140.9603"/>
<polygon fill="#000000" stroke="#000000" points="263.667,-143.6928 270.2533,-135.3939 259.9293,-137.7742 263.667,-143.6928"/>
<text text-anchor="middle" x="243.1846" y="-158.0902" font-family="Times,serif" font-size="14.00" fill="#000000">*</text>
</g>
<!-- S118 -->
<g id="node23" class="node">
<title>S118</title>
<ellipse fill="none" stroke="#000000" cx="376.3993" cy="-30.8902" rx="30.7808" ry="30.7808"/>
<text text-anchor="middle" x="376.3993" y="-26.6902" font-family="Times,serif" font-size="14.00" fill="#000000">S118</text>
</g>
<!-- S23&#45;&gt;S118 -->
<g id="edge36" class="edge">
<title>S23-&gt;S118</title>
<path fill="none" stroke="#000000" d="M206.1631,-158.9349C217.9691,-135.765 238.6,-101.0013 265.2649,-78.8902 285.9814,-61.7118 313.7788,-49.7091 336.3902,-42.0023"/>
<polygon fill="#000000" stroke="#000000" points="337.6214,-45.2824 346.048,-38.8603 335.4558,-38.6258 337.6214,-45.2824"/>
<text text-anchor="middle" x="243.1846" y="-109.0902" font-family="Times,serif" font-size="14.00" fill="#000000">/</text>
</g>
<!-- S116&#45;&gt;S116 -->
<g id="edge31" class="edge">
<title>S116-&gt;S116</title>
<path fill="none" stroke="#000000" d="M286.6465,-148.4859C286.4371,-159.1148 289.6839,-167.7804 296.387,-167.7804 300.7859,-167.7804 303.6964,-164.0485 305.1183,-158.4788"/>
<polygon fill="#000000" stroke="#000000" points="308.6049,-158.787 306.1275,-148.4859 301.6403,-158.0836 308.6049,-158.787"/>
<text text-anchor="middle" x="296.387" y="-171.9804" font-family="Times,serif" font-size="14.00" fill="#000000">/, ∑ / {*}</text>
</g>
<!-- S117 -->
<g id="node22" class="node">
<title>S117</title>
<ellipse fill="none" stroke="#000000" cx="458.034" cy="-118.8902" rx="30.7808" ry="30.7808"/>
<text text-anchor="middle" x="458.034" y="-114.6902" font-family="Times,serif" font-size="14.00" fill="#000000">S117</text>
</g>
<!-- S116&#45;&gt;S117 -->
<g id="edge32" class="edge">
<title>S116-&gt;S117</title>
<path fill="none" stroke="#000000" d="M324.7504,-131.1923C331.4353,-133.553 338.623,-135.6683 345.5091,-136.8902 372.5447,-141.6876 380.2294,-141.5474 407.2895,-136.8902 411.435,-136.1768 415.6911,-135.1579 419.8907,-133.9632"/>
<polygon fill="#000000" stroke="#000000" points="421.0325,-137.273 429.509,-130.9169 418.9189,-130.5997 421.0325,-137.273"/>
<text text-anchor="middle" x="376.3993" y="-144.0902" font-family="Times,serif" font-size="14.00" fill="#000000">*</text>
</g>
<!-- S117&#45;&gt;CMT -->
<g id="edge35" class="edge">
<title>S117-&gt;CMT</title>
<path fill="none" stroke="#000000" d="M487.0858,-108.169C510.177,-99.6474 542.8356,-87.5951 569.0357,-77.9262"/>
<polygon fill="#000000" stroke="#000000" points="570.5577,-81.0953 578.7275,-74.3496 568.1341,-74.5283 570.5577,-81.0953"/>
<text text-anchor="middle" x="533.6536" y="-102.0902" font-family="Times,serif" font-size="14.00" fill="#000000">/</text>
</g>
<!-- S117&#45;&gt;S116 -->
<g id="edge33" class="edge">
<title>S117-&gt;S116</title>
<path fill="none" stroke="#000000" d="M427.1853,-116.9155C420.6208,-116.5717 413.728,-116.2677 407.2895,-116.0902 379.842,-115.3335 372.956,-115.3086 345.5091,-116.0902 342.8395,-116.1662 340.0892,-116.2655 337.3179,-116.3811"/>
<polygon fill="#000000" stroke="#000000" points="337.1178,-112.8865 327.2961,-116.8594 337.4516,-119.8786 337.1178,-112.8865"/>
<text text-anchor="middle" x="376.3993" y="-120.0902" font-family="Times,serif" font-size="14.00" fill="#000000">∑ / {/,*}</text>
</g>
<!-- S117&#45;&gt;S117 -->
<g id="edge34" class="edge">
<title>S117-&gt;S117</title>
<path fill="none" stroke="#000000" d="M444.2437,-147.025C443.4646,-158.3092 448.0613,-167.7804 458.034,-167.7804 464.7344,-167.7804 469.008,-163.505 470.8548,-157.2767"/>
<polygon fill="#000000" stroke="#000000" points="474.3672,-157.3101 471.8243,-147.025 467.3983,-156.651 474.3672,-157.3101"/>
<text text-anchor="middle" x="458.034" y="-171.9804" font-family="Times,serif" font-size="14.00" fill="#000000">*</text>
</g>
<!-- S118&#45;&gt;CMT -->
<g id="edge38" class="edge">
<title>S118-&gt;CMT</title>
<path fill="none" stroke="#000000" d="M407.2639,-34.9429C447.9035,-40.2792 519.6907,-49.7052 566.676,-55.8747"/>
<polygon fill="#000000" stroke="#000000" points="566.2254,-59.3455 576.596,-57.1772 567.1368,-52.4051 566.2254,-59.3455"/>
<text text-anchor="middle" x="458.034" y="-50.0902" font-family="Times,serif" font-size="14.00" fill="#000000">newline</text>
</g>
<!-- S118&#45;&gt;S118 -->
<g id="edge37" class="edge">
<title>S118-&gt;S118</title>
<path fill="none" stroke="#000000" d="M361.5788,-58.0394C360.3654,-69.7521 365.3056,-79.7804 376.3993,-79.7804 384.0263,-79.7804 388.7447,-75.0405 390.5546,-68.272"/>
<polygon fill="#000000" stroke="#000000" points="394.0636,-68.2454 391.2199,-58.0394 387.0784,-67.7912 394.0636,-68.2454"/>
<text text-anchor="middle" x="376.3993" y="-83.9804" font-family="Times,serif" font-size="14.00" fill="#000000">∑</text>
</g>
</g>
</svg>